<?xml version="1.0" encoding="UTF-8"?>
<!-- Svg Vector Icons : http://www.onlinewebfonts.com/icon -->
<!DOCTYPE svg PUBLIC "-//W3C//DTD SVG 1.1//EN" "http://www.w3.org/Graphics/SVG/1.1/DTD/svg11.dtd">
<svg version="1.1" xmlns="http://www.w3.org/2000/svg" xmlns:xlink="http://www.w3.org/1999/xlink" x="0px" y="0px" viewBox="0 0 1000 1000" enable-background="new 0 0 1000 1000" xml:space="preserve" fill="white">
<metadata> Svg Vector Icons : http://www.onlinewebfonts.com/icon </metadata>
<g><path d="M614,382.2c-7.6-7.5-15.5-14.3-23.7-20.5l-76.4,76.4c8.9,5.3,17.4,11.5,25,19.2l3.9,3.8c48.9,48.9,48.9,128.5,0,177.4L334,847.3c-48.9,48.9-128.5,48.9-177.4,0l-3.9-3.8c-48.9-48.9-48.9-128.5,0-177.4l94.4-94.4C230.8,531.1,223,488,223.7,445L77.6,590.9c-90.1,90.1-90.1,237.5,0,327.7l3.9,3.8c90.1,90.1,237.5,90.1,327.7,0l208.7-208.7c90.1-90.1,90.1-237.5,0-327.6L614,382.2z"/><path d="M922.4,81.4l-3.8-3.8c-90.1-90.1-237.5-90.1-327.6,0L382.2,286.3c-90.1,90.1-90.1,237.5,0,327.6l3.8,3.8c7.6,7.5,15.5,14.3,23.7,20.6l76.4-76.4c-8.9-5.3-17.3-11.6-25-19.3l-3.9-3.8c-48.9-48.9-48.9-128.5,0-177.4L666,152.7c48.9-48.9,128.5-48.9,177.4,0l3.8,3.8c48.9,48.9,48.9,128.5,0,177.4l-94.4,94.4C769.2,468.9,777,512,776.4,555l146.1-146C1012.5,318.9,1012.5,171.5,922.4,81.4z"/></g>
</svg>
